<?xml version="1.0" encoding="UTF-8" standalone="no"?>
<!-- Created with Inkscape (http://www.inkscape.org/) -->

<svg
   width="430mm"
   height="145.411mm"
   viewBox="0 0 430 145.41099"
   version="1.1"
   id="svg839"
   inkscape:version="1.2.2 (1:1.2.2+202305151915+b0a8486541)"
   sodipodi:docname="BDC_logo.svg"
   inkscape:export-filename="BDC_logo.png"
   inkscape:export-xdpi="300"
   inkscape:export-ydpi="300"
   xmlns:inkscape="http://www.inkscape.org/namespaces/inkscape"
   xmlns:sodipodi="http://sodipodi.sourceforge.net/DTD/sodipodi-0.dtd"
   xmlns="http://www.w3.org/2000/svg"
   xmlns:svg="http://www.w3.org/2000/svg">
  <sodipodi:namedview
     id="namedview841"
     pagecolor="#ffffff"
     bordercolor="#666666"
     borderopacity="1.0"
     inkscape:showpageshadow="2"
     inkscape:pageopacity="1"
     inkscape:pagecheckerboard="0"
     inkscape:deskcolor="#d1d1d1"
     inkscape:document-units="mm"
     showgrid="false"
     inkscape:zoom="0.49184595"
     inkscape:cx="264.3104"
     inkscape:cy="292.77459"
     inkscape:window-width="1600"
     inkscape:window-height="843"
     inkscape:window-x="0"
     inkscape:window-y="27"
     inkscape:window-maximized="1"
     inkscape:current-layer="layer1" />
  <defs
     id="defs836">
    <rect
       x="348.07388"
       y="31.51565"
       width="313.36276"
       height="112.27058"
       id="rect3660" />
  </defs>
  <g
     inkscape:label="Layer 1"
     inkscape:groupmode="layer"
     id="layer1"
     transform="translate(-42.126521,-42.440751)">
    <text
       xml:space="preserve"
       transform="matrix(1.0913586,0,0,1.0913586,-251.4279,48.587601)"
       id="text3658"
       style="font-size:22.4149px;line-height:1.25;font-family:IPAexGothic;-inkscape-font-specification:IPAexGothic;letter-spacing:0px;word-spacing:0px;white-space:pre;shape-inside:url(#rect3660);display:inline;fill:#364548;fill-opacity:1"
       x="141.39648"
       y="0"><tspan
         x="445.54002"
         y="54.039973"
         id="tspan1568"><tspan
           style="font-family:sans-serif;-inkscape-font-specification:sans-serif;text-align:center;text-anchor:middle"
           id="tspan1562">B</tspan><tspan
           style="font-size:18.6791px"
           id="tspan1564">IOMEDICAL</tspan><tspan
           style="font-family:sans-serif;-inkscape-font-specification:sans-serif;text-align:center;text-anchor:middle"
           id="tspan1566">
</tspan></tspan><tspan
         x="437.37887"
         y="84.751009"
         id="tspan1578"><tspan
           style="font-family:sans-serif;-inkscape-font-specification:sans-serif;text-align:center;text-anchor:middle"
           id="tspan1570">D</tspan><tspan
           style="font-size:18.6791px"
           id="tspan1572">ATA</tspan><tspan
           style="font-family:sans-serif;-inkscape-font-specification:sans-serif;text-align:center;text-anchor:middle"
           id="tspan1574"> C</tspan><tspan
           style="font-size:18.6791px"
           id="tspan1576">ENTER</tspan></tspan></text>
    <g
       id="g392"
       transform="matrix(0.44806143,0,0,0.44806143,126.1396,63.986835)">
      <g
         id="g13332"
         transform="matrix(0.21842604,0,0,0.2763212,25.91024,25.645774)"
         style="stroke:#323232;stroke-width:4.95973;stroke-dasharray:none;stroke-opacity:1"
         inkscape:export-filename="./BDC_logo_lowres.png"
         inkscape:export-xdpi="100"
         inkscape:export-ydpi="100">
        <line
           class="cls-1"
           x1="383.35999"
           y1="290.23001"
           x2="466.54001"
           y2="290.23001"
           id="line12532"
           style="fill:none;stroke:#323232;stroke-width:4.95973;stroke-linecap:round;stroke-linejoin:round;stroke-dasharray:none;stroke-opacity:1" />
        <path
           class="cls-1"
           d="m 475.39,283 a 7.21,7.21 0 1 0 6.82,7.19 7,7 0 0 0 -6.82,-7.19 z"
           id="path12534"
           style="fill:none;stroke:#323232;stroke-width:4.95973;stroke-linecap:round;stroke-linejoin:round;stroke-dasharray:none;stroke-opacity:1" />
        <polyline
           class="cls-1"
           points="384.3 265.13 567.73 265.13 576.12 276.64 628.52 276.64"
           id="polyline12536"
           style="fill:none;stroke:#323232;stroke-width:4.95973;stroke-linecap:round;stroke-linejoin:round;stroke-dasharray:none;stroke-opacity:1" />
        <path
           class="cls-1"
           d="m 536.41,366.72 c -3.29,0 -6,-3.23 -6,-7.2 0,-3.97 2.67,-7.2 6,-7.2 3.33,0 6,3.22 6,7.2 0,3.98 -2.7,7.2 -6,7.2 z"
           id="path12538"
           style="fill:none;stroke:#323232;stroke-width:4.95973;stroke-linecap:round;stroke-linejoin:round;stroke-dasharray:none;stroke-opacity:1" />
        <polyline
           class="cls-1"
           points="381.97 341.56 470.97 341.56 485.05 359.41 530.63 359.41"
           id="polyline12540"
           style="fill:none;stroke:#323232;stroke-width:4.95973;stroke-linecap:round;stroke-linejoin:round;stroke-dasharray:none;stroke-opacity:1" />
        <path
           class="cls-1"
           d="m 573.23,287.84 a 11.56,11.56 0 1 0 11.4,11.56 11.48,11.48 0 0 0 -11.4,-11.56 z"
           id="path12542"
           style="fill:none;stroke:#323232;stroke-width:4.95973;stroke-linecap:round;stroke-linejoin:round;stroke-dasharray:none;stroke-opacity:1" />
        <polyline
           class="cls-1"
           points="384.3 316.93 516.02 316.93 528.98 299.36 561.91 299.36"
           id="polyline12544"
           style="fill:none;stroke:#323232;stroke-width:4.95973;stroke-linecap:round;stroke-linejoin:round;stroke-dasharray:none;stroke-opacity:1" />
        <polyline
           class="cls-1"
           points="385.23 238.67 497.68 238.67 505.87 230.03 551.26 230.03"
           id="polyline12546"
           style="fill:none;stroke:#323232;stroke-width:4.95973;stroke-linecap:round;stroke-linejoin:round;stroke-dasharray:none;stroke-opacity:1" />
        <ellipse
           class="cls-1"
           cx="559.14001"
           cy="230.10001"
           rx="7.1399999"
           ry="7.1999998"
           id="ellipse12548"
           style="fill:none;stroke:#323232;stroke-width:4.95973;stroke-linecap:round;stroke-linejoin:round;stroke-dasharray:none;stroke-opacity:1" />
        <line
           class="cls-1"
           x1="428.20001"
           y1="176.33"
           x2="428.20001"
           y2="137.22"
           id="line12550"
           style="fill:none;stroke:#323232;stroke-width:4.95973;stroke-linecap:round;stroke-linejoin:round;stroke-dasharray:none;stroke-opacity:1" />
        <line
           class="cls-1"
           x1="429.13"
           y1="134.89"
           x2="459.63"
           y2="134.89"
           id="line12552"
           style="fill:none;stroke:#323232;stroke-width:4.95973;stroke-linecap:round;stroke-linejoin:round;stroke-dasharray:none;stroke-opacity:1" />
        <path
           class="cls-1"
           d="m 468.41,127.69 a 7.2,7.2 0 1 0 7.14,7.2 7.18,7.18 0 0 0 -7.14,-7.2 z"
           id="path12554"
           style="fill:none;stroke:#323232;stroke-width:4.95973;stroke-linecap:round;stroke-linejoin:round;stroke-dasharray:none;stroke-opacity:1" />
        <line
           class="cls-1"
           x1="427.28"
           y1="178.2"
           x2="390.76999"
           y2="177.73"
           id="line12556"
           style="fill:none;stroke:#323232;stroke-width:4.95973;stroke-linecap:round;stroke-linejoin:round;stroke-dasharray:none;stroke-opacity:1" />
        <line
           class="cls-1"
           x1="416.10001"
           y1="508.19"
           x2="416.10001"
           y2="469.07999"
           id="line12558"
           style="fill:none;stroke:#323232;stroke-width:4.95973;stroke-linecap:round;stroke-linejoin:round;stroke-dasharray:none;stroke-opacity:1" />
        <line
           class="cls-1"
           x1="417.01999"
           y1="466.75"
           x2="447.51999"
           y2="466.75"
           id="line12560"
           style="fill:none;stroke:#323232;stroke-width:4.95973;stroke-linecap:round;stroke-linejoin:round;stroke-dasharray:none;stroke-opacity:1" />
        <path
           class="cls-1"
           d="m 456.3,459.55 a 7.2,7.2 0 1 0 7.14,7.2 7.16,7.16 0 0 0 -7.14,-7.2 z"
           id="path12562"
           style="fill:none;stroke:#323232;stroke-width:4.95973;stroke-linecap:round;stroke-linejoin:round;stroke-dasharray:none;stroke-opacity:1" />
        <line
           class="cls-1"
           x1="415.17001"
           y1="510.04999"
           x2="378.67001"
           y2="509.59"
           id="line12564"
           style="fill:none;stroke:#323232;stroke-width:4.95973;stroke-linecap:round;stroke-linejoin:round;stroke-dasharray:none;stroke-opacity:1" />
        <path
           class="cls-1"
           d="m 437.39,361.87 a 7.2,7.2 0 1 0 6.93,7.19 7.06,7.06 0 0 0 -6.93,-7.19 z"
           id="path12566"
           style="fill:none;stroke:#323232;stroke-width:4.95973;stroke-linecap:round;stroke-linejoin:round;stroke-dasharray:none;stroke-opacity:1" />
        <line
           class="cls-1"
           x1="380.57001"
           y1="368.92001"
           x2="430.48999"
           y2="368.92001"
           id="line12568"
           style="fill:none;stroke:#323232;stroke-width:4.95973;stroke-linecap:round;stroke-linejoin:round;stroke-dasharray:none;stroke-opacity:1" />
        <polyline
           class="cls-1"
           points="381.5 394.4 448.95 394.4 466.95 375.61 584.69 375.61 601.96 393.64 623.63 393.64"
           id="polyline12570"
           style="fill:none;stroke:#323232;stroke-width:4.95973;stroke-linecap:round;stroke-linejoin:round;stroke-dasharray:none;stroke-opacity:1" />
        <circle
           class="cls-1"
           cx="540.60999"
           cy="447.54999"
           r="7.1100001"
           id="circle12572"
           style="fill:none;stroke:#323232;stroke-width:4.95973;stroke-linecap:round;stroke-linejoin:round;stroke-dasharray:none;stroke-opacity:1" />
        <path
           class="cls-1"
           d="m 584.05,491.37 a 7.11,7.11 0 1 0 7.11,7.11 7.1,7.1 0 0 0 -7.11,-7.11 z"
           id="path12574"
           style="fill:none;stroke:#323232;stroke-width:4.95973;stroke-linecap:round;stroke-linejoin:round;stroke-dasharray:none;stroke-opacity:1" />
        <polyline
           class="cls-1"
           points="495.42 375 495.42 435.81 507.56 447.99 532.41 448.25"
           id="polyline12576"
           style="fill:none;stroke:#323232;stroke-width:4.95973;stroke-linecap:round;stroke-linejoin:round;stroke-dasharray:none;stroke-opacity:1" />
        <path
           class="cls-1"
           d="M 633.88,384 A 10.09,10.09 0 1 0 644,394.11 10.1,10.1 0 0 0 633.88,384 Z"
           id="path12578"
           style="fill:none;stroke:#323232;stroke-width:4.95973;stroke-linecap:round;stroke-linejoin:round;stroke-dasharray:none;stroke-opacity:1" />
        <path
           class="cls-1"
           d="m 639.65,266.56 a 10.1,10.1 0 1 0 10.09,10.1 10.1,10.1 0 0 0 -10.09,-10.1 z"
           id="path12580"
           style="fill:none;stroke:#323232;stroke-width:4.95973;stroke-linecap:round;stroke-linejoin:round;stroke-dasharray:none;stroke-opacity:1" />
        <path
           class="cls-1"
           d="m 573.54,156.19 a 10.09,10.09 0 1 0 10.09,10.09 10.09,10.09 0 0 0 -10.09,-10.09 z"
           id="path12582"
           style="fill:none;stroke:#323232;stroke-width:4.95973;stroke-linecap:round;stroke-linejoin:round;stroke-dasharray:none;stroke-opacity:1" />
        <polyline
           class="cls-1"
           points="379.64 419.3 434.11 419.3 477.36 465.35 477.36 497"
           id="polyline12584"
           style="fill:none;stroke:#323232;stroke-width:4.95973;stroke-linecap:round;stroke-linejoin:round;stroke-dasharray:none;stroke-opacity:1" />
        <polyline
           class="cls-1"
           points="384.76 211.04 437.01 211.04 478.5 165"
           id="polyline12586"
           style="fill:none;stroke:#323232;stroke-width:4.95973;stroke-linecap:round;stroke-linejoin:round;stroke-dasharray:none;stroke-opacity:1" />
        <line
           class="cls-1"
           x1="476.39001"
           y1="498.54999"
           x2="576.98999"
           y2="498.54999"
           id="line12588"
           style="fill:none;stroke:#323232;stroke-width:4.95973;stroke-linecap:round;stroke-linejoin:round;stroke-dasharray:none;stroke-opacity:1" />
        <line
           class="cls-1"
           x1="479.26999"
           y1="165.71001"
           x2="563.77002"
           y2="165.71001"
           id="line12590"
           style="fill:none;stroke:#323232;stroke-width:4.95973;stroke-linecap:round;stroke-linejoin:round;stroke-dasharray:none;stroke-opacity:1" />
      </g>
      <g
         id="brain"
         transform="matrix(0.27592875,0,0,0.27592875,4.2107175,25.770914)"
         style="fill:#316997;fill-opacity:1"
         inkscape:export-filename="./BDC_logo.png"
         inkscape:export-xdpi="300"
         inkscape:export-ydpi="300">
        <g
           id="_Gruppo_"
           data-name="&lt;Gruppo&gt;"
           style="fill:#316997;fill-opacity:1">
          <path
             id="_Tracciato_"
             data-name="&lt;Tracciato&gt;"
             class="cls-10"
             d="m 328.34,107.68 a 23.92,23.92 0 0 0 3.15,-0.17 c 3.39,3.53 4.27,9.22 3.9,13.71 a 65.16,65.16 0 0 1 -3,13.2 c -0.58,1.92 -1.19,3.9 -1.71,5.9 -2.41,9.13 -2.3,16.48 0.34,22.46 a 3.78,3.78 0 0 0 3.45,2.25 3.91,3.91 0 0 0 1.52,-0.32 3.77,3.77 0 0 0 1.92,-5 c -1.95,-4.42 -1.94,-10 0.05,-17.5 0.49,-1.86 1.07,-3.78 1.63,-5.63 a 71.23,71.23 0 0 0 3.34,-14.76 c 0.58,-6.92 -1.06,-13.22 -4.46,-17.77 a 20.38,20.38 0 0 0 2.68,-3.27 29.39,29.39 0 0 0 4.35,-10.58 3.7644953,3.7644953 0 0 0 -7.39,-1.44 21.78,21.78 0 0 1 -3.22,7.85 9.36,9.36 0 0 1 -2.74,2.89 3.86,3.86 0 0 0 -1.75,0.54 18.59,18.59 0 0 1 -2,0.08 c -4.09,0 -8.21,-0.17 -10.33,-2.42 a 3.77,3.77 0 0 0 -5.48,5.17 c 4.14,4.37 10.22,4.78 15.63,4.78 z"
             style="fill:#316997;fill-opacity:1" />
          <path
             id="_Tracciato_2"
             data-name="&lt;Tracciato&gt;"
             class="cls-10"
             d="m 260.55,226.06 a 3.72,3.72 0 0 0 2,-0.57 3.76,3.76 0 0 0 1.19,-5.19 16,16 0 0 1 -1.2,-14.42 34.07,34.07 0 0 1 2.13,-4.08 c 0.7,-1.23 1.43,-2.5 2.08,-3.87 a 28.69,28.69 0 0 0 -1,-25.94 3.763861,3.763861 0 0 0 -6.55,3.71 21,21 0 0 1 0.73,19 c -0.51,1.09 -1.13,2.17 -1.79,3.31 a 43.52,43.52 0 0 0 -2.56,5 23.7,23.7 0 0 0 1.78,21.29 3.78,3.78 0 0 0 3.19,1.76 z"
             style="fill:#316997;fill-opacity:1" />
          <path
             id="_Tracciato_3"
             data-name="&lt;Tracciato&gt;"
             class="cls-10"
             d="m 328.54,224.25 a 17.34,17.34 0 0 1 -0.27,10.87 3.7626088,3.7626088 0 1 0 7.08,2.55 25,25 0 0 0 0.39,-15.61 45,45 0 0 0 -2.07,-5.24 c -0.51,-1.14 -1,-2.22 -1.39,-3.31 a 25.33,25.33 0 0 1 5.55,-25.65 3.77,3.77 0 0 0 -5.37,-5.28 32.63,32.63 0 0 0 -7.24,33.52 c 0.48,1.32 1,2.57 1.57,3.78 a 39,39 0 0 1 1.75,4.37 z"
             style="fill:#316997;fill-opacity:1" />
          <path
             id="_Tracciato_4"
             data-name="&lt;Tracciato&gt;"
             class="cls-10"
             d="m 216.34,252 a 20.6,20.6 0 0 0 2.4,1.67 18.38,18.38 0 0 0 0.54,18.17 3.7608809,3.7608809 0 1 0 6.37,-4 10.81,10.81 0 0 1 0.24,-11.42 18.22,18.22 0 0 0 5.61,0.15 35.86,35.86 0 0 0 6.36,-1.64 39.42,39.42 0 0 1 4.08,-1.17 c 6.51,-1.33 14.16,1.56 19,7.2 a 21.71,21.71 0 0 1 1.65,2.14 c 0,0.07 -0.08,0.13 -0.11,0.2 a 31.87,31.87 0 0 1 -11,13.12 3.7612365,3.7612365 0 0 0 4.26,6.2 39.4,39.4 0 0 0 10.74,-11.06 36.09,36.09 0 0 1 1.38,10.39 3.76,3.76 0 0 0 3.72,3.8 v 0 a 3.76,3.76 0 0 0 3.76,-3.72 c 0.12,-10.09 -3,-19.33 -8.78,-26 -6.71,-7.75 -17,-11.54 -26.24,-9.64 a 45.37,45.37 0 0 0 -4.9,1.38 29.23,29.23 0 0 1 -5,1.34 13.2,13.2 0 0 1 -14.15,-11.57 c -0.29,-4.2 1.5,-8.45 3.4,-12.95 0.55,-1.33 1.13,-2.7 1.66,-4.08 3.49,-9.17 2.81,-17.33 -1.87,-22.39 a 3.761067,3.761067 0 1 0 -5.52,5.11 c 3.78,4.09 1.51,11.58 0.35,14.6 -0.48,1.26 -1,2.52 -1.56,3.84 -2.15,5.11 -4.37,10.4 -4,16.38 a 20,20 0 0 0 7.61,13.95 z"
             style="fill:#316997;fill-opacity:1" />
          <path
             id="_Tracciato_5"
             data-name="&lt;Tracciato&gt;"
             class="cls-10"
             d="m 315.64,323.09 a 3.75,3.75 0 0 0 5.06,-1.66 c 1.85,-3.68 4.08,-6.28 6.61,-7.73 a 21.93,21.93 0 0 1 3.86,-1.61 c 0.64,10.71 6.55,22.15 11,27.26 a 3.7798446,3.7798446 0 1 0 5.67,-5 c -4.25,-4.85 -9.6,-16.56 -9.18,-25.23 0.44,-0.25 0.88,-0.5 1.3,-0.79 5.66,-3.84 8,-10.42 9.24,-15.05 a 3.7652224,3.7652224 0 0 0 -7.26,-2 c -1.5,5.51 -3.47,8.94 -6.2,10.79 a 23.11,23.11 0 0 1 -5.68,2.39 33,33 0 0 0 -6.51,2.64 c -3.83,2.19 -7.06,5.85 -9.59,10.87 a 3.76,3.76 0 0 0 1.68,5.12 z"
             style="fill:#316997;fill-opacity:1" />
          <path
             id="_Tracciato_6"
             data-name="&lt;Tracciato&gt;"
             class="cls-10"
             d="m 188.13,334.06 a 15,15 0 0 0 -2.72,-5.1 c -0.27,-0.38 -0.55,-0.76 -0.81,-1.15 -2.28,-3.46 -2.66,-7.72 -2.57,-10.68 a 44,44 0 0 1 1,-7.81 21.5,21.5 0 0 0 6,0.87 21.19,21.19 0 0 0 8.32,-1.69 3.7665667,3.7665667 0 0 0 -3,-6.91 13.75,13.75 0 0 1 -10.91,-0.1 v 0 a 3.7,3.7 0 0 0 -2.05,-1.33 1.45,1.45 0 0 0 -0.28,0 13.75,13.75 0 0 1 -4.9,-6.73 3.7632433,3.7632433 0 1 0 -7.16,2.32 21.29,21.29 0 0 0 7.11,10.06 57.43,57.43 0 0 0 -1.65,11.17 25.87,25.87 0 0 0 3.81,15 c 0.32,0.49 0.67,1 1,1.44 a 9.13,9.13 0 0 1 1.53,2.59 3.77,3.77 0 0 0 3.64,2.81 3.52,3.52 0 0 0 1,-0.13 3.75,3.75 0 0 0 2.64,-4.63 z"
             style="fill:#316997;fill-opacity:1" />
          <path
             id="_Tracciato_7"
             data-name="&lt;Tracciato&gt;"
             class="cls-10"
             d="m 193.18,404.41 a 3.77,3.77 0 0 0 2.94,-6.11 c -3.56,-4.46 -3.75,-11.15 -3.64,-18.2 0,-2.62 0.08,-5.34 1,-7.47 a 20.81,20.81 0 0 1 2.38,-3.76 c 0.46,-0.62 0.91,-1.24 1.34,-1.88 a 32.78,32.78 0 0 0 5.06,-24 3.76,3.76 0 1 0 -7.4,1.33 25.26,25.26 0 0 1 -3.9,18.44 c -0.37,0.55 -0.77,1.1 -1.17,1.64 a 26.7,26.7 0 0 0 -3.23,5.26 c -1.49,3.49 -1.55,7.26 -1.59,10.3 -0.14,8.47 0.16,16.61 5.27,23 a 3.78,3.78 0 0 0 2.94,1.45 z"
             style="fill:#316997;fill-opacity:1" />
          <path
             id="_Tracciato_8"
             data-name="&lt;Tracciato&gt;"
             class="cls-10"
             d="m 236.49,460.34 c 0.48,0.63 0.95,1.24 1.43,1.84 4.82,6.08 15.77,15 26.12,15.41 a 0.66,0.66 0 0 0 0,0.14 c 0.92,7.71 4.45,14.54 7.8,20.21 a 3.76,3.76 0 0 0 3.24,1.86 3.7,3.7 0 0 0 1.91,-0.53 3.75,3.75 0 0 0 1.33,-5.15 c -2.94,-5 -6.06,-10.95 -6.81,-17.28 -0.72,-6.12 1.13,-12 4.84,-15.25 a 3.7686072,3.7686072 0 1 0 -5,-5.64 23,23 0 0 0 -7.25,14.12 c -6.53,-0.36 -15.46,-6.45 -20.32,-12.57 -0.45,-0.56 -0.9,-1.15 -1.35,-1.74 -3.37,-4.39 -7.56,-9.84 -14.25,-10.38 a 22,22 0 0 0 -5.76,0.51 16.69,16.69 0 0 1 -3.54,0.4 3.74,3.74 0 0 0 -1.51,-0.58 11,11 0 0 1 -1.92,-3.51 19.57,19.57 0 0 0 -3.07,-5.5 c -0.17,-0.2 -0.36,-0.37 -0.54,-0.55 a 3.63,3.63 0 0 0 -0.33,-0.94 21.46,21.46 0 0 1 7.78,-28.38 3.72,3.72 0 0 0 3.41,-1.63 3.76,3.76 0 0 0 -1,-5.23 c -1,-0.65 -3,-1.51 -5.8,0.12 a 28.92,28.92 0 0 0 -13.7,31.35 c -2.79,-0.77 -5.19,-1.46 -6.31,-3 a 3.7617881,3.7617881 0 1 0 -6.11,4.39 c 2.69,3.74 6.85,4.89 10.52,5.91 2.63,0.73 5.11,1.42 6.38,2.89 a 13.63,13.63 0 0 1 1.82,3.49 19,19 0 0 0 3.1,5.45 39.27,39.27 0 0 0 -4.18,28.79 3.76,3.76 0 0 0 3.65,2.87 3.47,3.47 0 0 0 0.9,-0.11 3.76,3.76 0 0 0 2.76,-4.55 31.65,31.65 0 0 1 3.7,-23.76 22,22 0 0 0 5.33,-0.5 16.77,16.77 0 0 1 3.82,-0.41 c 3.42,0.25 6.07,3.75 8.91,7.44 z"
             style="fill:#316997;fill-opacity:1" />
          <path
             id="_Tracciato_9"
             data-name="&lt;Tracciato&gt;"
             class="cls-10"
             d="m 324.76,523.53 a 14.76,14.76 0 0 1 -3.81,-2.48 24.52,24.52 0 0 0 -5.05,-3.31 14,14 0 0 0 -13,1 22.35,22.35 0 0 0 -2.29,1.7 8.67,8.67 0 0 1 -2.38,1.57 3.7644023,3.7644023 0 1 0 2.1,7.23 14.29,14.29 0 0 0 5,-3 16.75,16.75 0 0 1 1.58,-1.19 6.49,6.49 0 0 1 6,-0.44 17.71,17.71 0 0 1 3.44,2.33 20.91,20.91 0 0 0 6,3.67 c 0.33,0.12 0.66,0.22 1,0.31 0.55,6 5.8,13.19 9.31,15.41 a 3.72,3.72 0 0 0 2,0.59 3.77,3.77 0 0 0 2,-6.95 c -2.16,-1.36 -5.31,-6.56 -5.83,-9.21 a 22.59,22.59 0 0 0 7.75,-3.94 c 1.54,-1.18 2.95,-2.45 4.31,-3.68 a 36.67,36.67 0 0 1 5.92,-4.68 3.77,3.77 0 0 0 -3.79,-6.51 43.6,43.6 0 0 0 -7.18,5.61 c -1.3,1.18 -2.53,2.29 -3.82,3.27 -1.68,1.23 -5.78,3.93 -9.26,2.7 z"
             style="fill:#316997;fill-opacity:1" />
          <path
             id="_Tracciato_10"
             data-name="&lt;Tracciato&gt;"
             class="cls-10"
             d="m 330.66,427.63 a 101.36,101.36 0 0 1 -8,-8.67 47.36,47.36 0 0 1 -8.39,-16.49 c -0.38,-1.35 -0.7,-2.71 -1,-4.16 l -0.15,-0.61 c 0.43,0 0.86,0 1.3,0 a 22.13,22.13 0 0 0 15.23,-6 3.76,3.76 0 1 0 -5.2,-5.43 14.69,14.69 0 0 1 -13.69,3.44 25.29,25.29 0 0 0 -2.18,-4.27 c -5.71,-8.82 -16.16,-11.86 -26.39,-14.23 l -28.1,-6.49 a 124,124 0 0 1 -15,-4.16 109.89,109.89 0 0 1 -4.7,-25.43 3.762662,3.762662 0 0 0 -7.51,0.48 116.74,116.74 0 0 0 3.59,22.13 c -0.53,-0.1 -1.06,-0.18 -1.61,-0.24 a 30.89,30.89 0 0 0 -4.18,0 28.6,28.6 0 0 1 -2.93,0 4.34,4.34 0 0 1 -3.21,-1.26 3.7623463,3.7623463 0 1 0 -6.29,4.13 c 1.77,2.71 5,4.35 9,4.64 a 35.57,35.57 0 0 0 3.72,0 24.2,24.2 0 0 1 3.2,0 25.26,25.26 0 0 1 6.5,1.92 l 1.71,0.66 a 126.79,126.79 0 0 0 16.07,4.47 l 20.23,4.68 c -3.78,6.55 -7.48,13.36 -9.56,21 -2.73,10 -1.94,19.57 2.23,27 a 51.26,51.26 0 0 0 6.4,8.52 c 1.35,1.55 2.62,3 3.76,4.55 1,1.32 1.86,2.73 2.81,4.21 a 45.71,45.71 0 0 0 6.24,8.31 c 4.78,4.72 10.86,7 16.74,9.26 4.93,1.87 9.59,3.64 13.2,6.69 a 20,20 0 0 1 6.82,12.27 3.78,3.78 0 0 0 3.72,3.22 4.91,4.91 0 0 0 0.55,0 3.77,3.77 0 0 0 3.18,-4.27 27.66,27.66 0 0 0 -9.41,-16.93 c -4.59,-3.88 -10.08,-6 -15.39,-8 -5.31,-2 -10.47,-4 -14.12,-7.58 a 39.26,39.26 0 0 1 -5.18,-7 c -0.29,-0.45 -0.58,-0.9 -0.88,-1.35 2.62,-3.18 5.12,-6.51 7.43,-9.91 A 3.7638411,3.7638411 0 1 0 285,422.49 c -1.83,2.69 -3.78,5.33 -5.82,7.88 -0.58,-0.69 -1.17,-1.37 -1.75,-2 a 45.1,45.1 0 0 1 -5.51,-7.25 c -4.31,-7.72 -2.82,-16.7 -1.54,-21.37 2,-7.44 6,-14.42 10,-21.17 l 0.2,0.05 c 9.08,2.09 17.58,4.52 21.76,11 1.9,2.95 2.77,6.61 3.68,10.49 0.34,1.46 0.7,3 1.12,4.47 a 55.24,55.24 0 0 0 9.73,19.12 110.44,110.44 0 0 0 8.57,9.32 c 5.64,5.68 11,11.05 13.1,17.93 a 3.75,3.75 0 0 0 3.59,2.66 3.89,3.89 0 0 0 1.11,-0.17 3.77,3.77 0 0 0 2.49,-4.71 c -2.79,-8.74 -9.04,-15.03 -15.07,-21.11 z"
             style="fill:#316997;fill-opacity:1" />
          <path
             id="_Tracciato_11"
             data-name="&lt;Tracciato&gt;"
             class="cls-10"
             d="m 316.42,554.45 a 24.14,24.14 0 0 1 -24.06,-6.58 51.11,51.11 0 0 1 -4.75,-6.48 c -0.94,-1.42 -1.91,-2.89 -3,-4.32 -3.91,-5.29 -8.07,-8.43 -12.73,-9.6 l -0.31,-0.06 a 34.62,34.62 0 0 1 -2.67,-14.17 3.7611999,3.7611999 0 1 0 -7.52,-0.19 42.45,42.45 0 0 0 2,13.92 17.55,17.55 0 0 1 -6.38,-0.54 c -2.45,-0.89 -4.62,-3.29 -6.53,-5.4 -8.19,-9 -15,-17.33 -15.89,-27.21 a 3.764057,3.764057 0 0 0 -7.5,0.65 c 1.15,13.21 10.78,23.85 17.81,31.61 2.37,2.62 5.33,5.89 9.52,7.42 3.29,1.2 6.64,1.08 9.59,1 a 22.28,22.28 0 0 1 6.05,0.3 c 2.89,0.72 5.67,2.93 8.49,6.76 0.94,1.27 1.81,2.59 2.73,4 a 57.65,57.65 0 0 0 5.49,7.42 31.49,31.49 0 0 0 23.07,10 30.27,30.27 0 0 0 8.74,-1.28 3.764306,3.764306 0 0 0 -2.2,-7.2 z"
             style="fill:#316997;fill-opacity:1" />
          <path
             id="_Tracciato_12"
             data-name="&lt;Tracciato&gt;"
             class="cls-10"
             d="m 252,109.58 a 30,30 0 0 0 -22.66,25.61 c -0.05,0.46 -0.08,0.92 -0.12,1.39 a 14.37,14.37 0 0 1 -0.41,2.95 2.13,2.13 0 0 1 -0.72,1.17 3.77,3.77 0 0 0 1.06,7.38 3.48,3.48 0 0 0 1,-0.16 8.9,8.9 0 0 0 5.8,-6.18 20.65,20.65 0 0 0 0.73,-4.59 c 0,-0.4 0.06,-0.8 0.1,-1.2 a 22.61,22.61 0 0 1 16.84,-19 3.7637913,3.7637913 0 0 0 -1.67,-7.34 z"
             style="fill:#316997;fill-opacity:1" />
          <path
             id="_Tracciato_13"
             data-name="&lt;Tracciato&gt;"
             class="cls-10"
             d="m 304.69,79.31 a 18.15,18.15 0 0 0 -15.38,6.35 c -2.9,3.47 -4.16,7.54 -5.37,11.47 -0.38,1.22 -0.73,2.37 -1.13,3.48 -0.62,1.72 -2.92,7.35 -6.92,8 a 3.77,3.77 0 0 0 0.57,7.49 3.66,3.66 0 0 0 0.57,0 c 5.56,-0.85 10.25,-5.54 12.86,-12.86 0.46,-1.27 0.85,-2.56 1.24,-3.8 1,-3.37 2,-6.56 4,-8.86 a 10.62,10.62 0 0 1 8.87,-3.77 3.77,3.77 0 0 0 0.69,-7.5 z"
             style="fill:#316997;fill-opacity:1" />
          <path
             id="_Tracciato_composto_"
             data-name="&lt;Tracciato composto&gt;"
             class="cls-11"
             d="m 375,403.35 c 0.88,-5 1.75,-11.47 0.55,-17.91 a 25.85,25.85 0 0 0 -7.3,-14.06 13.67,13.67 0 0 0 1.85,-1.72 c 2.7,-3.06 3.65,-7 4.27,-10.73 a 111.33,111.33 0 0 0 -6.57,-59.6 c -1.67,-4.14 -3.59,-8.19 -5.45,-12.11 -1.86,-3.92 -3.88,-8.22 -5.53,-12.42 4.33,-1.45 8.08,-5.32 10.36,-10.88 3.34,-8.12 3.32,-16.76 3.3,-25.11 0,-2.9 0,-5.9 0.13,-8.76 0.24,-4.75 0.92,-9.64 1.58,-14.38 1.22,-8.72 2.47,-17.73 1.2,-26.82 a 50.49,50.49 0 0 0 -7.58,-20.36 C 382.29,132.56 378.05,85 342,65.61 c -11,-5.9 -23.84,-5.07 -36,-3.72 -32.07,3.57 -42.57,20.56 -48.21,29.68 a 30.55,30.55 0 0 1 -2.87,4.19 c -0.47,0 -1.27,0.07 -2,0.1 -9.2,0.4 -33.61,1.46 -47.46,20.92 -7.52,10.55 -14.77,27.09 -8.37,47.33 a 58.57,58.57 0 0 0 -15.17,7.29 c -19.23,13 -27.66,35.54 -23.43,62.22 a 21.29,21.29 0 0 0 -6.61,3.57 c -6.48,5.2 -9.75,14.08 -9.72,26.4 0,4.4 0.33,9.89 2.35,15.08 -11.75,22.2 -7.32,54.87 9.62,77.35 a 3.68,3.68 0 0 0 -0.57,1.43 105.78,105.78 0 0 0 5.74,55.79 65,65 0 0 0 5.15,10.54 114.82,114.82 0 0 0 8.11,57.52 c 2.27,5.42 5.62,12.24 11.47,17 a 22.21,22.21 0 0 0 15.76,5 43.13,43.13 0 0 0 34.11,43.25 78,78 0 0 0 20.26,19.26 c 9.73,6.34 20.77,10.39 31.25,14 10.48,3.61 21.94,7.09 33.34,7.09 a 45.51,45.51 0 0 0 16.64,-3 c 7.45,-2.91 14.52,-8.26 21.6,-16.34 6.18,-7.06 15.75,-20.93 11,-35 0.19,-0.51 0.38,-1 0.54,-1.55 1.87,-5.85 2,-11.9 2.06,-17.6 a 79.73,79.73 0 0 0 -0.66,-12.05 46.46,46.46 0 0 0 -7,-18.45 3.74,3.74 0 0 0 0.1,-2 c 3.31,-5.79 4.52,-12.46 5.51,-18 2.54,-14.1 4.37,-27.8 -0.66,-40.25 0.49,-0.67 0.95,-1.37 1.38,-2.09 3.32,-5.65 4.8,-12.18 5.74,-17.22 z M 186.09,177.63 c 15.46,-10.46 36.33,-11.79 49.62,-3.15 0.89,0.58 2.12,2.57 2.71,5.57 a 20.1,20.1 0 0 1 -3.26,15.18 3.7627948,3.7627948 0 1 0 6.19,4.28 27.57,27.57 0 0 0 4.45,-20.92 20.56,20.56 0 0 0 -2.32,-6.38 3.51,3.51 0 0 0 -0.32,-0.87 c -3,-5.83 -0.21,-13.25 3.7,-17.68 4.81,-5.45 11.78,-8.78 18.52,-12 l 11.38,-5.44 a 21.51,21.51 0 0 1 6.31,-2.28 9,9 0 0 1 9.47,7.59 c 0.36,3.62 -1.56,7.31 -3.59,11.22 a 52.33,52.33 0 0 0 -3.53,7.86 26.77,26.77 0 0 0 5.58,25.67 c -9.59,6 -17.52,19.12 -15.18,31.86 1.54,8.34 6.78,16.4 13.35,20.52 0.5,0.31 1,0.6 1.5,0.85 a 29.5,29.5 0 0 0 -5.76,15.7 c -0.5,7.33 0.34,17.31 7.13,23.2 0.81,0.7 1.63,1.34 2.46,1.93 0.4,0.8 0.84,1.56 1.27,2.29 0.43,0.73 0.84,1.43 1.17,2.11 2.17,4.42 2.05,10.07 1.95,15.05 a 3.76,3.76 0 0 0 3.69,3.84 h 0.08 a 3.77,3.77 0 0 0 3.76,-3.69 c 0.09,-4.47 0.19,-9.81 -1.32,-14.88 a 28.66,28.66 0 0 0 6,0.63 c 6.18,0 11.4,-2 14.08,-3.85 a 3.7647875,3.7647875 0 1 0 -4.33,-6.16 c -2,1.41 -11.25,5.09 -20.57,-0.55 a 3.77,3.77 0 0 0 -2,-1.38 c -0.43,-0.32 -0.85,-0.66 -1.27,-1 -4.69,-4.07 -4.87,-12.41 -4.56,-17 a 21,21 0 0 1 8.1,-15.5 3.76,3.76 0 0 0 -3.22,-6.66 c -0.71,0.2 -2.17,0 -4.14,-1.27 -4,-2.5 -8.6,-8.26 -9.93,-15.5 -1.93,-10.45 6.28,-22.33 14.63,-25.58 a 3.74,3.74 0 0 0 0.94,-6.46 3.74,3.74 0 0 0 -1.16,-2.41 19.3,19.3 0 0 1 -5,-19.4 45.52,45.52 0 0 1 3,-6.7 c 2.12,-4.07 4.48,-8.65 4.48,-13.82 h 0.26 a 17.11,17.11 0 0 0 14.31,-8.26 c 3.23,-5.35 3.75,-12.32 1.43,-19.12 a 3.7616253,3.7616253 0 1 0 -7.12,2.43 c 1.57,4.62 1.29,9.41 -0.75,12.8 -2.04,3.39 -6.39,5.4 -9.76,4.35 a 3.22,3.22 0 0 0 -0.6,-0.13 17,17 0 0 0 -3.92,-4.52 16.1,16.1 0 0 0 -11.83,-3.56 27.77,27.77 0 0 0 -8.65,3 l -11.38,5.44 c -7.07,3.37 -15.09,7.2 -20.91,13.8 a 27.07,27.07 0 0 0 -6.85,16.56 c -8.86,-3.91 -19.53,-4.86 -30,-2.94 -4.62,-14.13 -2.22,-28 7.18,-41.16 11.71,-16.46 33.46,-17.4 41.65,-17.76 A 18.85,18.85 0 0 0 257,103 c 3,-0.82 4.76,-3.62 7.16,-7.5 5.31,-8.6 14.21,-23 42.64,-26.16 11.47,-1.27 22.52,-2 31.64,2.88 31,16.6 35.29,57.22 22.12,89.44 -0.71,-0.78 -1.44,-1.54 -2.2,-2.26 a 3.76,3.76 0 1 0 -5.21,5.42 43.13,43.13 0 0 1 4.61,5.23 3.69,3.69 0 0 0 1.44,2.06 43.2,43.2 0 0 1 6.73,17.75 c 1.12,8.05 0,16.15 -1.2,24.74 -0.69,4.9 -1.39,10 -1.65,15 -0.15,3.06 -0.14,6.16 -0.14,9.16 0,8 0,15.49 -2.73,22.23 -1.31,3.18 -3.83,6.65 -7,6.83 -3.17,0.18 -6.27,-2.74 -9.84,-9.19 a 3.77,3.77 0 1 0 -6.59,3.65 c 1.66,3 5.55,10 11.89,12.31 a 171.13,171.13 0 0 0 6.84,15.79 c 1.81,3.81 3.69,7.76 5.27,11.69 a 103.83,103.83 0 0 1 6.12,55.57 c -0.41,2.47 -1,5.26 -2.49,7 -2,2.27 -5.9,3.07 -11.6,2.37 -21.86,-2.68 -42.93,-16.14 -64.44,-41.18 l -1.5,-1.75 c -4.35,-5.1 -8.85,-10.38 -14.73,-14.24 -9.93,-6.5 -21.93,-7.71 -31.28,-8 l -1.59,-0.05 c -4.55,-0.14 -8.84,-0.27 -12.56,-1.8 -7.23,-3 -11.37,-10.93 -13.57,-17.09 -1.05,-3 -1.9,-6 -2.79,-9.17 a 91.71,91.71 0 0 0 -5.35,-15.52 48.16,48.16 0 0 0 -24.48,-23.07 36.1,36.1 0 0 0 -14.64,-2.8 c -5.16,-32.11 10.3,-48.01 20.21,-54.71 z M 367.56,402 c -0.79,4.42 -2.06,10.08 -4.87,14.78 -2.67,4.46 -6.55,7.55 -10.64,8.5 a 3.76,3.76 0 0 0 0.85,7.43 3.58,3.58 0 0 0 0.85,-0.1 22,22 0 0 0 8.15,-3.86 c 2.83,9.89 1.22,21.22 -0.89,32.91 -1,5.78 -2.22,12.34 -5.71,17.23 -2.78,3.91 -8.26,7.14 -12.92,5.43 a 3.7617682,3.7617682 0 0 0 -2.6,7.06 15.18,15.18 0 0 0 5.27,0.93 19.73,19.73 0 0 0 11.95,-4.41 39,39 0 0 1 5.43,14.68 73.3,73.3 0 0 1 0.58,10.91 c 0,5.11 -0.16,10.5 -1.71,15.34 -1.47,4.62 -4.21,8.27 -7.59,10.14 a 3.76,3.76 0 0 0 -4.16,5.8 4.74,4.74 0 0 0 4,2 6.69,6.69 0 0 0 2.94,-0.72 20.38,20.38 0 0 0 5.17,-3.62 c -0.77,8.09 -6.38,15.8 -10.31,20.28 -6.35,7.12 -12.45,11.8 -18.75,14.29 -14.05,5.49 -30.49,0.69 -44.79,-4.23 -10,-3.45 -20.58,-7.31 -29.59,-13.19 a 70.28,70.28 0 0 1 -18.12,-17.16 3.81,3.81 0 0 0 -1.61,-2.27 69.76,69.76 0 0 1 -7.8,-15.2 3.7630207,3.7630207 0 1 0 -7.07,2.58 75.9,75.9 0 0 0 4,9.08 35.5,35.5 0 0 1 -20,-37.64 3.77,3.77 0 0 0 -5.38,-4 c -4.5,2.21 -10.06,0.32 -13.57,-2.53 -4.54,-3.68 -7.34,-9.44 -9.26,-14.05 a 107.15,107.15 0 0 1 -8.19,-46.06 29.19,29.19 0 0 0 8.33,5.56 3.7665667,3.7665667 0 1 0 3,-6.91 c -6.68,-2.89 -12.17,-9.78 -16.33,-20.47 a 98.15,98.15 0 0 1 -6,-47.27 l 1.15,1.16 c 4,4 8.07,8.07 7.91,12.56 a 3.76,3.76 0 0 0 3.62,3.9 h 0.14 a 3.77,3.77 0 0 0 3.76,-3.62 c 0.28,-7.77 -5.48,-13.53 -10.1,-18.16 l -1.23,-1.23 c -18.2,-18.46 -25,-49.93 -16.32,-71.59 a 17.56,17.56 0 0 0 13.47,5.74 3.77,3.77 0 0 0 -0.39,-7.52 c -4.24,0.22 -8,-3.1 -9.83,-6.49 -2.43,-4.48 -2.75,-10 -2.76,-14.39 0,-9.91 2.3,-16.81 6.91,-20.51 5.88,-4.73 14.73,-3.6 21,-1 a 40.52,40.52 0 0 1 20.6,19.41 84.05,84.05 0 0 1 4.91,14.27 c 0.89,3.17 1.81,6.46 2.95,9.67 3.89,10.91 10.05,18.35 17.8,21.53 5,2 10.17,2.2 15.19,2.35 l 1.56,0.05 c 8.37,0.3 19.05,1.34 27.41,6.82 5,3.26 8.94,7.91 13.13,12.82 l 1.52,1.78 c 22.79,26.52 45.43,40.83 69.23,43.74 a 36.67,36.67 0 0 0 4.55,0.3 27.36,27.36 0 0 0 3.95,-0.29 3.77,3.77 0 0 0 0.91,0.87 c 3.41,2.26 5.89,6.41 6.81,11.4 1.03,5.25 0.26,10.88 -0.51,15.19 z"
             style="fill:#316997;fill-opacity:1;stroke:#2081b9;stroke-miterlimit:10;stroke-opacity:1" />
        </g>
      </g>
    </g>
    <rect
       style="fill:#ea0000;stroke-width:2.64599;stroke-linecap:round;stroke-linejoin:round;stroke-dasharray:7.938, 7.938"
       id="rect460"
       width="430"
       height="145.41098"
       x="42.126522"
       y="-108.36174" />
    <rect
       style="fill:#ea0000;stroke-width:2.64599;stroke-linecap:round;stroke-linejoin:round;stroke-dasharray:7.938, 7.938"
       id="rect460-3"
       width="430"
       height="145.41098"
       x="-425.06543"
       y="42.44075" />
  </g>
</svg>
